<svg width="238" height="155" viewBox="0 0 238 155" fill="none" xmlns="http://www.w3.org/2000/svg">
<path d="M101.237 16.6743C101.237 16.6743 77.0699 -1.20494 52.9103 1.22745C28.7507 3.65983 4.34084 34.8116 4.34084 34.8116L12.162 40.74C12.162 40.74 52.6991 7.10896 74.6532 31.9725C96.6072 56.836 101.237 16.6743 101.237 16.6743Z" fill="#E4DEBE"/>
<path opacity="0.2" d="M100.896 15.6743C100.896 15.6743 76.7291 -2.20494 52.5695 0.227446C28.4099 2.65983 4 33.8116 4 33.8116L11.8212 39.74C11.8212 39.74 52.3583 6.10896 74.3123 30.9725C96.2664 55.836 100.896 15.6743 100.896 15.6743Z" fill="white"/>
<path d="M0 14.1797H82.9826V67.7938H0V14.1797Z" fill="#E6BAA3"/>
<path opacity="0.45" d="M217.288 128.665C215.759 128.357 214.318 127.711 213.069 126.777C211.821 125.842 210.796 124.641 210.069 123.261V123.183L173.036 52.6592L152.654 67.0893L167.068 112.405C167.448 113.597 167.534 114.862 167.319 116.094C167.104 117.326 166.593 118.488 165.832 119.48C165.07 120.472 164.08 121.265 162.946 121.791C161.811 122.317 160.566 122.561 159.317 122.502C148.368 122.002 136.722 121.72 124.623 121.72C62.1157 121.72 11.4423 129.002 11.4423 137.988C11.4423 146.975 62.1157 154.264 124.623 154.264C187.129 154.264 237.764 146.983 237.764 138.012C237.764 134.523 230.185 131.309 217.288 128.665Z" fill="#E6E6E6"/>
<path d="M99.5168 132.678C99.5168 132.678 100.674 136.588 104.108 137.05C107.541 137.511 108.261 140.96 105.109 141.664C101.957 142.368 94.1593 137.949 94.1593 137.949L94.6521 132.983L99.5168 132.678Z" fill="#053B50"/>
<path d="M32.6694 132.013C32.6694 132.013 28.6963 132.874 27.9767 136.26C27.2572 139.647 23.7689 140.1 23.284 136.901C22.7991 133.703 27.8281 126.28 27.8281 126.28L32.7398 127.164L32.6694 132.013Z" fill="#053B50"/>
<path d="M33.2009 73.6201C33.2009 73.6201 29.5406 90.7016 42.7193 98.0222C55.898 105.343 97.4675 92.1641 91.0463 133.655H100.322C100.322 133.655 112.312 99.2423 81.2073 87.01L71.7671 76.3028L33.2009 73.6201Z" fill="#D24545"/>
<path d="M158.019 58.2754L161.174 61.2906L141.441 81.9406L138.285 78.9254L158.019 58.2754Z" fill="#D24545"/>
<path opacity="0.08" d="M158.734 59L161.889 62.0152L142.155 82.6652L139 79.65L158.734 59Z" fill="black"/>
<path d="M156.482 56.7969L159.637 59.812L139.903 80.4621L136.748 77.4469L156.482 56.7969Z" fill="#D24545"/>
<path d="M168.22 63.6123C173.293 58.3034 174.535 51.2563 170.993 47.8722C167.452 44.488 160.469 46.0483 155.395 51.3572C150.322 56.666 149.08 63.7131 152.621 67.0973C156.163 70.4815 163.146 68.9212 168.22 63.6123Z" fill="#D24545"/>
<path opacity="0.08" d="M168.01 62.8682C173.084 57.5593 174.325 50.5122 170.784 47.128C167.243 43.7439 160.259 45.3041 155.186 50.613C150.113 55.9219 148.871 62.969 152.412 66.3532C155.953 69.7373 162.937 68.1771 168.01 62.8682Z" fill="black"/>
<path d="M166.679 62.1455C171.752 56.8367 172.994 49.7895 169.452 46.4054C165.911 43.0212 158.928 44.5815 153.854 49.8904C148.781 55.1992 147.539 62.2463 151.08 65.6305C154.622 69.0147 161.605 67.4544 166.679 62.1455Z" fill="#A94438"/>
<path opacity="0.57" d="M164.502 60.0658C167.853 56.5588 168.674 51.9038 166.335 49.6686C163.996 47.4334 159.383 48.4644 156.031 51.9713C152.68 55.4783 151.859 60.1333 154.198 62.3685C156.538 64.6037 161.15 63.5728 164.502 60.0658Z" fill="white"/>
<path d="M133.938 18.606C133.938 18.606 130.41 23.7288 126.985 26.2473C126.652 26.4893 126.276 26.6635 125.876 26.7599C125.477 26.8563 125.062 26.873 124.656 26.8091C124.25 26.7451 123.86 26.6018 123.51 26.3873C123.159 26.1729 122.854 25.8914 122.613 25.559C121.369 23.8149 120.196 21.0931 121.752 18.1211L123.77 12.7479C124.293 11.7209 125.121 10.881 126.141 10.3433C127.16 9.80554 128.321 9.59642 129.464 9.74458C133.742 9.99486 136.237 15.5948 133.938 18.606Z" fill="#F4A28C"/>
<path d="M125.005 13.8506L109.089 20.2639L111.045 31.589L122.518 22.2271L125.005 13.8506Z" fill="#F4A28C"/>
<path d="M132.585 17.8239C131.054 16.658 129.663 15.3196 128.439 13.8351C128.328 14.8405 127.927 15.7918 127.284 16.5725C126.641 17.3532 125.784 17.9294 124.818 18.2306C123.887 18.537 122.879 18.5103 121.966 18.155C121.053 17.7997 120.291 17.138 119.813 16.2831L124.974 10.1826C125.68 9.27981 126.617 8.58497 127.685 8.17184C128.754 7.75872 129.914 7.64274 131.044 7.83623C132.019 8.00427 132.983 8.23416 133.93 8.52449C136.276 9.30661 137.911 12.6071 140.492 12.7166C140.751 12.7293 141.003 12.8091 141.223 12.9483C141.442 13.0875 141.622 13.2812 141.744 13.5106C141.866 13.7399 141.927 13.9971 141.92 14.2568C141.913 14.5166 141.838 14.7701 141.704 14.9926C140.437 17.0965 137.668 19.7713 134.282 18.6998C133.672 18.5032 133.098 18.2072 132.585 17.8239Z" fill="#053B50"/>
<path d="M125.451 18.5121C125.451 18.5121 126.937 16.635 125.451 15.6261C123.965 14.6171 121.783 17.3233 123.465 19.1299L125.451 18.5121Z" fill="#F4A28C"/>
<path d="M131.552 21.7188L131.364 24.6673C131.348 24.8324 131.292 24.9909 131.199 25.1287C131.107 25.2665 130.982 25.3792 130.836 25.4567C130.689 25.5342 130.526 25.5742 130.36 25.5729C130.194 25.5716 130.031 25.5292 129.886 25.4495L127.766 24.2763L131.552 21.7188Z" fill="#F4A28C"/>
<path opacity="0.31" d="M121.228 23.2672C121.228 23.2672 121.705 19.7085 122.988 18.3555C122.988 18.3555 117.193 20.3108 117.06 26.685L121.228 23.2672Z" fill="#CE8172"/>
<path opacity="0.08" d="M16.1584 66.4089C16.1584 66.4089 15.9081 29.5165 60.2229 21.7188L34.1862 67.7933H16.1975L16.1584 66.4089Z" fill="black"/>
<path d="M113.157 35.5075L111.843 27.8662C111.329 24.7499 110.033 21.815 108.076 19.3363C106.118 16.8576 103.564 14.9164 100.651 13.6943C98.1162 12.6808 95.4655 11.9847 92.7596 11.6217C89.287 11.1368 84.4223 11.6217 78.9787 13.0529C55.5309 19.2082 38.3243 39.074 34.7657 63.0224L33.2014 73.6201L71.7676 76.3028C71.7676 76.3028 69.8123 65.3531 83.4994 65.3531C97.1864 65.3531 114.518 65.4939 113.157 35.5075Z" fill="#A94438"/>
<path opacity="0.08" d="M75.3654 23.6582C75.3654 23.6582 56.6493 26.9509 36.0796 56.5932L33.2014 73.6198L62.4682 75.7941L75.3654 23.6582Z" fill="black"/>
<path d="M96.8266 37.2909C100.479 25.1056 86.315 15.2509 76.2178 22.9938C67.771 29.4619 58.2292 41.1077 57.8537 60.7623C57.2046 96.2313 91.1797 89.8883 137.16 76.3029L135.698 65.9712C135.698 65.9712 80.6368 76.3812 88.1139 58.4863C91.2423 51.0015 94.887 43.7747 96.8266 37.2909Z" fill="#E4DEBE"/>
<path opacity="0.2" d="M95.982 38.0439C99.6345 25.8585 85.4704 16.0038 75.3733 23.7468C66.9264 30.2149 57.3846 41.8606 57.0091 61.5152C56.36 96.9842 90.3352 90.6413 136.316 77.0559L134.853 66.7241C134.853 66.7241 79.7922 77.1341 87.2693 59.2393C90.3977 51.7544 94.0424 44.5276 95.982 38.0439Z" fill="#E4DEBE"/>
<path d="M77.4999 87.0957C77.4999 87.0957 78.6339 126.319 32.7393 133.655L30.9639 125.341C30.9639 125.341 67.7234 116.23 43.9783 91.8197L77.4999 87.0957Z" fill="#D24545"/>
<path opacity="0.08" d="M149.791 139.842C152.547 139.842 154.781 139.016 154.781 137.996C154.781 136.977 152.547 136.15 149.791 136.15C147.036 136.15 144.802 136.977 144.802 137.996C144.802 139.016 147.036 139.842 149.791 139.842Z" fill="black"/>
<path opacity="0.08" d="M168.875 135.064C171.631 135.064 173.865 134.237 173.865 133.218C173.865 132.198 171.631 131.372 168.875 131.372C166.119 131.372 163.885 132.198 163.885 133.218C163.885 134.237 166.119 135.064 168.875 135.064Z" fill="black"/>
<path opacity="0.08" d="M188.091 138.755C190.847 138.755 193.081 137.929 193.081 136.909C193.081 135.89 190.847 135.063 188.091 135.063C185.335 135.063 183.101 135.89 183.101 136.909C183.101 137.929 185.335 138.755 188.091 138.755Z" fill="black"/>
<path opacity="0.08" d="M217.515 140.609C220.271 140.609 222.505 139.782 222.505 138.763C222.505 137.743 220.271 136.917 217.515 136.917C214.759 136.917 212.525 137.743 212.525 138.763C212.525 139.782 214.759 140.609 217.515 140.609Z" fill="black"/>
<path opacity="0.08" d="M130.872 134.649C133.688 134.649 135.972 133.801 135.972 132.756C135.972 131.711 133.688 130.863 130.872 130.863C128.056 130.863 125.773 131.711 125.773 132.756C125.773 133.801 128.056 134.649 130.872 134.649Z" fill="black"/>
<path d="M135.979 67.9579C135.979 67.9579 148.633 66.6204 149.744 71.5634C150.855 76.5064 148.43 79.1265 137.042 75.474L135.979 67.9579Z" fill="#F4A28C"/>
<path d="M9.90919 67.7934C9.90919 67.7934 11.7315 75.1766 19.0287 73.6202C26.3258 72.0638 21.1169 63.0069 9.90919 67.7934Z" fill="#F4A28C"/>
</svg>
